<?xml version="1.0" encoding="UTF-8"?>
<svg version="1.1" xmlns="http://www.w3.org/2000/svg" width="320" height="418">
<path d="M0 0 C4.23689704 3.76959222 8.32480159 7.67490181 12.28125 11.73828125 C12.81105469 12.23457031 13.34085938 12.73085938 13.88671875 13.2421875 C34.27223545 32.63767911 44.31592072 62.33355046 45.40625 89.8984375 C45.91720698 118.22461494 37.29970224 148.16684356 18.28125 169.73828125 C15.37815595 172.74346936 12.4069421 175.67589859 9.30737305 178.47851562 C7.47577089 180.12959318 7.47577089 180.12959318 5.28125 182.73828125 C5.58954435 186.24196127 7.42692969 188.85604384 9.2734375 191.78125 C9.89033447 192.76367676 10.50723145 193.74610352 11.14282227 194.75830078 C11.80725342 195.80356934 12.47168457 196.84883789 13.15625 197.92578125 C13.8380835 199.00714355 14.51991699 200.08850586 15.22241211 201.20263672 C19.92610507 208.64743396 24.68940687 216.05246901 29.4921875 223.43359375 C32.68453814 228.34719744 35.82682198 233.29233773 38.96875 238.23828125 C44.01772064 246.184487 49.07972352 254.12214853 54.15625 262.05078125 C54.82213135 263.09081299 55.4880127 264.13084473 56.17407227 265.20239258 C58.20957438 268.38116553 60.24535843 271.55975772 62.28125 274.73828125 C71.13990758 288.56880741 79.9900034 302.40453516 88.80078125 316.265625 C91.27374059 320.15595182 93.75096145 324.04353082 96.23046875 327.9296875 C96.87677246 328.94329346 97.52307617 329.95689941 98.18896484 331.0012207 C99.434633 332.95466212 100.68102272 334.90764364 101.92822266 336.86010742 C102.48429199 337.73256104 103.04036133 338.60501465 103.61328125 339.50390625 C104.35155151 340.66067871 104.35155151 340.66067871 105.10473633 341.84082031 C107.46061145 345.64033504 107.47116472 347.9156368 106.90234375 352.3046875 C105.79336167 356.64994432 103.29768662 359.51005227 100.28125 362.73828125 C99.67539062 363.39699219 99.06953125 364.05570312 98.4453125 364.734375 C89.91387633 373.11871744 77.41387876 379.80563113 65.34375 379.98828125 C64.32410156 380.0140625 63.30445313 380.03984375 62.25390625 380.06640625 C58.65526508 379.66918436 57.09514692 379.03275899 54.28125 376.73828125 C49.02119063 369.4187749 45.23984716 361.06938578 41.15625 353.05078125 C40.36756085 351.50892355 39.57849072 349.96726068 38.7890625 348.42578125 C37.13207555 345.18918657 35.47691901 341.95166605 33.82324219 338.71337891 C30.05351885 331.33286153 26.27045419 323.95919436 22.48590088 316.58627319 C21.32395355 314.32151497 20.16355212 312.05597064 19.00341797 309.7902832 C15.19171166 302.35359814 11.34188258 294.93925767 7.4375 287.55078125 C1.27415811 275.88083225 -4.699966 264.11505447 -10.68701172 252.35400391 C-16.21861328 241.49171533 -21.7786525 230.64799819 -27.48474121 219.87609863 C-33.71875 208.10279347 -33.71875 208.10279347 -33.71875 205.73828125 C-34.36457031 205.99222656 -35.01039063 206.24617187 -35.67578125 206.5078125 C-63.23330825 216.57328406 -95.22217979 215.08775521 -121.88671875 202.8828125 C-151.97660265 188.51178798 -175.02910234 165.13645688 -186.51220703 133.55615234 C-196.62686283 103.81147332 -195.25004156 70.63904352 -181.609375 42.21484375 C-167.46069376 14.05340747 -143.63356949 -8.65862331 -113.52441406 -19.01660156 C-75.38384889 -31.16045234 -31.48051341 -26.18853055 0 0 Z M-56.71875 13.73828125 C-56.71875 51.68828125 -56.71875 89.63828125 -56.71875 128.73828125 C-53.74875 128.73828125 -50.77875 128.73828125 -47.71875 128.73828125 C-47.69554659 115.59457302 -47.67779416 102.45086969 -47.66693783 89.30714512 C-47.6617265 83.20353533 -47.65466066 77.09993959 -47.64331055 70.99633789 C-47.63241944 65.10247091 -47.62645998 59.20861741 -47.62387276 53.31474113 C-47.62202972 51.06977056 -47.61843075 48.8248007 -47.61301994 46.57983589 C-47.6057269 43.42763823 -47.60476254 40.2754958 -47.60522461 37.12329102 C-47.60162933 36.20187317 -47.59803406 35.28045532 -47.59432983 34.33111572 C-47.44805335 25.95568102 -47.44805335 25.95568102 -48.71875 17.73828125 C-52.24160826 14.58311043 -52.24160826 14.58311043 -56.71875 13.73828125 Z M-91.90625 51.86328125 C-92.34453125 52.31832031 -92.7828125 52.77335937 -93.234375 53.2421875 C-97.6342217 57.67676983 -102.45100141 61.3860776 -107.71875 64.73828125 C-108.70875 65.39828125 -109.69875 66.05828125 -110.71875 66.73828125 C-109.04386472 68.47476073 -109.04386472 68.47476073 -106.71875 69.73828125 C-102.45171571 68.57129033 -99.83759474 66.2952773 -96.65625 63.30078125 C-91.94642872 58.8957558 -91.94642872 58.8957558 -89.42578125 57.15234375 C-88.86246094 56.68570313 -88.29914063 56.2190625 -87.71875 55.73828125 C-87.38477213 52.6124125 -87.38477213 52.6124125 -87.71875 49.73828125 C-89.98794324 49.50601936 -89.98794324 49.50601936 -91.90625 51.86328125 Z M-27.71875 132.73828125 C-27.73333252 133.29813721 -27.74791504 133.85799316 -27.76293945 134.43481445 C-27.83746352 136.97416262 -27.93410581 139.51220203 -28.03125 142.05078125 C-28.05380859 142.93185547 -28.07636719 143.81292969 -28.09960938 144.72070312 C-28.1527832 145.99204102 -28.1527832 145.99204102 -28.20703125 147.2890625 C-28.23321533 148.06934814 -28.25939941 148.84963379 -28.28637695 149.65356445 C-28.85815115 152.4104136 -29.40734024 153.0998752 -31.71875 154.73828125 C-34.44560626 155.04788981 -36.94910894 155.17577221 -39.6784668 155.1706543 C-40.89344345 155.18594177 -40.89344345 155.18594177 -42.13296509 155.20153809 C-44.81136932 155.2317425 -47.48941637 155.24094527 -50.16796875 155.25 C-52.02457373 155.26684119 -53.88116726 155.28499067 -55.73774719 155.30439758 C-60.62525864 155.35196462 -65.51272371 155.38173056 -70.40039062 155.40783691 C-75.38746299 155.43760867 -80.37437543 155.48415058 -85.36132812 155.52929688 C-95.14705188 155.61540622 -104.93280848 155.68271752 -114.71875 155.73828125 C-111.84843079 159.03383294 -110.08305078 160.32736064 -105.71875 160.73828125 C-103.1894161 160.82228429 -100.69037156 160.85789668 -98.16210938 160.83935547 C-97.41838577 160.83777939 -96.67466217 160.83620331 -95.90840149 160.83457947 C-93.45968962 160.82711528 -91.01115501 160.81111059 -88.5625 160.79296875 C-87.30447823 160.78440542 -87.30447823 160.78440542 -86.02104187 160.7756691 C-81.58670237 160.74419454 -77.152492 160.70529148 -72.71826172 160.66113281 C-68.14178903 160.61728576 -63.56565983 160.60154793 -58.98900604 160.59190178 C-55.46459901 160.57903577 -51.94064524 160.54433931 -48.41645813 160.50378799 C-46.72924847 160.48830694 -45.04194006 160.48120385 -43.35466003 160.48269272 C-40.99401534 160.48287225 -38.63568058 160.45194317 -36.27539062 160.41357422 C-35.58121536 160.42062881 -34.8870401 160.42768341 -34.17182922 160.43495178 C-30.37979017 160.33696391 -28.79333739 159.79809873 -25.79724121 157.39529419 C-21.70276076 152.16116692 -22.07987791 144.20280056 -22.71875 137.73828125 C-23.4442696 135.49939476 -23.4442696 135.49939476 -24.71875 133.73828125 C-25.70875 133.40828125 -26.69875 133.07828125 -27.71875 132.73828125 Z " fill="#5CE0E6" transform="translate(202.71875,29.26171875)"/>
<path d="M0 0 C4.23689704 3.76959222 8.32480159 7.67490181 12.28125 11.73828125 C12.81105469 12.23457031 13.34085938 12.73085938 13.88671875 13.2421875 C34.27223545 32.63767911 44.31592072 62.33355046 45.40625 89.8984375 C45.91720698 118.22461494 37.29970224 148.16684356 18.28125 169.73828125 C15.37815595 172.74346936 12.4069421 175.67589859 9.30737305 178.47851562 C7.47577089 180.12959318 7.47577089 180.12959318 5.28125 182.73828125 C5.58954435 186.24196127 7.42692969 188.85604384 9.2734375 191.78125 C9.89033447 192.76367676 10.50723145 193.74610352 11.14282227 194.75830078 C11.80725342 195.80356934 12.47168457 196.84883789 13.15625 197.92578125 C13.8380835 199.00714355 14.51991699 200.08850586 15.22241211 201.20263672 C19.92610507 208.64743396 24.68940687 216.05246901 29.4921875 223.43359375 C32.68453814 228.34719744 35.82682198 233.29233773 38.96875 238.23828125 C44.01772064 246.184487 49.07972352 254.12214853 54.15625 262.05078125 C54.82213135 263.09081299 55.4880127 264.13084473 56.17407227 265.20239258 C58.20957438 268.38116553 60.24535843 271.55975772 62.28125 274.73828125 C71.13990758 288.56880741 79.9900034 302.40453516 88.80078125 316.265625 C91.27374059 320.15595182 93.75096145 324.04353082 96.23046875 327.9296875 C96.87677246 328.94329346 97.52307617 329.95689941 98.18896484 331.0012207 C99.434633 332.95466212 100.68102272 334.90764364 101.92822266 336.86010742 C102.48429199 337.73256104 103.04036133 338.60501465 103.61328125 339.50390625 C104.35155151 340.66067871 104.35155151 340.66067871 105.10473633 341.84082031 C107.46061145 345.64033504 107.47116472 347.9156368 106.90234375 352.3046875 C105.79336167 356.64994432 103.29768662 359.51005227 100.28125 362.73828125 C99.67539062 363.39699219 99.06953125 364.05570312 98.4453125 364.734375 C89.91387633 373.11871744 77.41387876 379.80563113 65.34375 379.98828125 C64.32410156 380.0140625 63.30445313 380.03984375 62.25390625 380.06640625 C58.65526508 379.66918436 57.09514692 379.03275899 54.28125 376.73828125 C49.02119063 369.4187749 45.23984716 361.06938578 41.15625 353.05078125 C40.36756085 351.50892355 39.57849072 349.96726068 38.7890625 348.42578125 C37.13207555 345.18918657 35.47691901 341.95166605 33.82324219 338.71337891 C30.05351885 331.33286153 26.27045419 323.95919436 22.48590088 316.58627319 C21.32395355 314.32151497 20.16355212 312.05597064 19.00341797 309.7902832 C15.19171166 302.35359814 11.34188258 294.93925767 7.4375 287.55078125 C1.27415811 275.88083225 -4.699966 264.11505447 -10.68701172 252.35400391 C-16.21861328 241.49171533 -21.7786525 230.64799819 -27.48474121 219.87609863 C-33.71875 208.10279347 -33.71875 208.10279347 -33.71875 205.73828125 C-34.36457031 205.99222656 -35.01039063 206.24617187 -35.67578125 206.5078125 C-63.23330825 216.57328406 -95.22217979 215.08775521 -121.88671875 202.8828125 C-151.97660265 188.51178798 -175.02910234 165.13645688 -186.51220703 133.55615234 C-196.62686283 103.81147332 -195.25004156 70.63904352 -181.609375 42.21484375 C-167.46069376 14.05340747 -143.63356949 -8.65862331 -113.52441406 -19.01660156 C-75.38384889 -31.16045234 -31.48051341 -26.18853055 0 0 Z M-151.71875 28.73828125 C-154.29066366 31.93994331 -156.54077037 35.25846379 -158.71875 38.73828125 C-159.3890625 39.79917969 -160.059375 40.86007813 -160.75 41.953125 C-174.36753866 64.19944195 -178.31405657 91.29521873 -172.70483398 116.68994141 C-169.69150689 128.77623777 -164.30007928 145.37683113 -155.71875 154.73828125 C-155.05875 154.73828125 -154.39875 154.73828125 -153.71875 154.73828125 C-153.71875 155.72828125 -153.71875 156.71828125 -153.71875 157.73828125 C-152.15128218 159.1844193 -152.15128218 159.1844193 -150.09375 160.48828125 C-147.13646621 162.57608195 -144.84590723 164.59261537 -142.59375 167.42578125 C-140.02028891 170.59527556 -137.59594755 172.27356217 -133.71875 173.73828125 C-132.72875 173.73828125 -131.73875 173.73828125 -130.71875 173.73828125 C-130.71875 174.39828125 -130.71875 175.05828125 -130.71875 175.73828125 C-130.05875 175.73828125 -129.39875 175.73828125 -128.71875 175.73828125 C-128.71875 176.39828125 -128.71875 177.05828125 -128.71875 177.73828125 C-126.73875 178.06828125 -124.75875 178.39828125 -122.71875 178.73828125 C-122.38875 179.72828125 -122.05875 180.71828125 -121.71875 181.73828125 C-118.30392997 184.29939628 -115.97066465 185.10273108 -111.71875 184.73828125 C-111.71875 185.39828125 -111.71875 186.05828125 -111.71875 186.73828125 C-110.06875 187.06828125 -108.41875 187.39828125 -106.71875 187.73828125 C-106.71875 188.39828125 -106.71875 189.05828125 -106.71875 189.73828125 C-96.16544278 192.88301676 -86.43716565 194.36302937 -75.42480469 194.20483398 C-73.1913218 194.17542003 -70.96016378 194.18438133 -68.7265625 194.19726562 C-61.52423842 194.18583487 -55.30911274 193.9558809 -48.71875 190.73828125 C-45.22262806 189.47372651 -41.78625119 188.51100428 -38.15625 187.73828125 C-34.84800008 187.0241902 -31.76576473 186.26178861 -28.71875 184.73828125 C-28.38875 184.07828125 -28.05875 183.41828125 -27.71875 182.73828125 C-25.40909152 181.68475282 -23.0757726 180.68109029 -20.71875 179.73828125 C-20.71875 179.07828125 -20.71875 178.41828125 -20.71875 177.73828125 C-19.39875 177.07828125 -18.07875 176.41828125 -16.71875 175.73828125 C-16.71875 175.07828125 -16.71875 174.41828125 -16.71875 173.73828125 C-16.00976562 173.4959375 -15.30078125 173.25359375 -14.5703125 173.00390625 C-11.29664703 171.55093692 -8.87550426 169.7412723 -6.09375 167.48828125 C-5.15273437 166.740625 -4.21171875 165.99296875 -3.2421875 165.22265625 C-0.54801172 162.57018598 0.66479708 160.12068562 2.28125 156.73828125 C3.27125 156.07828125 4.26125 155.41828125 5.28125 154.73828125 C5.28125 153.74828125 5.28125 152.75828125 5.28125 151.73828125 C6.1784375 151.39796875 6.1784375 151.39796875 7.09375 151.05078125 C9.93642943 149.34517359 10.89040375 147.72860069 12.28125 144.73828125 C12.53321129 142.02874574 12.53321129 142.02874574 12.28125 139.73828125 C13.60125 139.73828125 14.92125 139.73828125 16.28125 139.73828125 C17.4194547 137.28535883 18.54164473 134.82691273 19.65625 132.36328125 C19.97335938 131.68394531 20.29046875 131.00460938 20.6171875 130.3046875 C25.59162773 119.21583116 25.68220489 108.19990075 25.70678711 96.23583984 C25.71866471 93.50786998 25.76794133 90.78218096 25.81835938 88.0546875 C25.91831635 77.18713231 24.83310043 68.74694941 20.28125 58.73828125 C19.85046143 57.71919678 19.41967285 56.7001123 18.97583008 55.65014648 C16.62728007 50.12798976 13.78000497 45.03612152 10.61328125 39.9453125 C9.28125 37.73828125 9.28125 37.73828125 7.84375 34.61328125 C5.61824211 30.51834673 2.76119144 26.85441063 -0.71875 23.73828125 C-1.70875 23.73828125 -2.69875 23.73828125 -3.71875 23.73828125 C-4.0590625 22.90296875 -4.0590625 22.90296875 -4.40625 22.05078125 C-6.83748077 17.76718417 -10.61699605 14.42563729 -14.71875 11.73828125 C-15.37875 11.73828125 -16.03875 11.73828125 -16.71875 11.73828125 C-16.71875 11.07828125 -16.71875 10.41828125 -16.71875 9.73828125 C-20.8981826 6.47628507 -24.66346843 5.13284168 -29.71875 3.73828125 C-31.82576027 2.73531326 -33.87565957 1.66429481 -35.921875 0.54296875 C-37.84694332 -0.46607578 -37.84694332 -0.46607578 -40.71875 -0.26171875 C-40.71875 -0.92171875 -40.71875 -1.58171875 -40.71875 -2.26171875 C-75.95220532 -23.31027647 -128.04523493 2.50216918 -151.71875 28.73828125 Z " fill="#5574FC" transform="translate(202.71875,29.26171875)"/>
<path d="M0 0 C9.77440454 -0.2976976 17.78998154 0.79651532 27 4 C28.134375 4.309375 29.26875 4.61875 30.4375 4.9375 C34.1155913 6.0344746 37.48682713 7.45913471 41 9 C42.37260903 9.50652685 43.74767615 10.00643742 45.125 10.5 C48.32409451 11.68876858 51.21011261 12.99476843 54 15 C54 15.66 54 16.32 54 17 C54.7425 17.226875 55.485 17.45375 56.25 17.6875 C59.54618078 19.26067719 60.81688828 21.1126587 63 24 C64.11375 24.8353125 64.11375 24.8353125 65.25 25.6875 C65.8275 26.120625 66.405 26.55375 67 27 C67 27.66 67 28.32 67 29 C67.58523437 29.08765625 68.17046875 29.1753125 68.7734375 29.265625 C71.59989154 30.19785896 72.70313219 31.49794345 74.625 33.75 C75.51058594 34.76320313 75.51058594 34.76320313 76.4140625 35.796875 C78.09371008 38.13017853 78.9548127 40.33169831 80 43 C81.07487615 44.6651104 82.18151223 46.30998101 83.3125 47.9375 C86.71835934 53.18054488 88.8238125 58.4211866 90.76171875 64.34765625 C91.81908286 67.77697171 91.81908286 67.77697171 93.01831055 69.94335938 C97.08040077 78.13793374 96.56905458 86.67795801 96.46655273 95.61230469 C96.43763728 98.36194594 96.44596297 101.1096471 96.45898438 103.859375 C96.44514324 116.40469503 95.00384837 127.21367028 89.8125 138.75 C89.28269531 139.94109375 88.75289062 141.1321875 88.20703125 142.359375 C87.60955078 143.66648438 87.60955078 143.66648438 87 145 C85.68 145 84.36 145 83 145 C82.9175 146.051875 82.835 147.10375 82.75 148.1875 C81.94347778 152.28732127 80.92278322 154.07721678 78 157 C77.34 157 76.68 157 76 157 C75.814375 157.9590625 75.814375 157.9590625 75.625 158.9375 C75.41875 159.618125 75.2125 160.29875 75 161 C74.34 161.33 73.68 161.66 73 162 C72.15308594 163.59521484 72.15308594 163.59521484 71.2890625 165.22265625 C69.02399684 169.32979338 66.13098055 171.71692927 62.375 174.4375 C61.49714844 175.10555664 61.49714844 175.10555664 60.6015625 175.78710938 C56.29796707 179 56.29796707 179 54 179 C53.34 180.32 52.68 181.64 52 183 C51.34 183 50.68 183 50 183 C49.67 183.99 49.34 184.98 49 186 C47.01276732 186.70381157 45.01222047 187.3711811 43 188 C42.67 188.66 42.34 189.32 42 190 C37.2374438 192.3812781 33.28992756 193.25755403 28 194 C25.99283871 194.65213217 24.04638892 195.39353006 22.08984375 196.18359375 C14.60150892 199.10894324 7.84780822 199.37231654 -0.10009766 199.37060547 C-2.33446875 199.3749217 -4.56676645 199.41111927 -6.80078125 199.44921875 C-17.07059514 199.52671714 -26.17218704 197.94051362 -36 195 C-36 194.34 -36 193.68 -36 193 C-37.65 192.67 -39.3 192.34 -41 192 C-41 191.34 -41 190.68 -41 190 C-41.70125 190.0825 -42.4025 190.165 -43.125 190.25 C-46.97138418 189.91553181 -49.00893216 188.36503039 -52 186 C-52 185.34 -52 184.68 -52 184 C-53.98 183.67 -55.96 183.34 -58 183 C-58 182.34 -58 181.68 -58 181 C-58.66 181 -59.32 181 -60 181 C-60 180.34 -60 179.68 -60 179 C-60.804375 178.8453125 -60.804375 178.8453125 -61.625 178.6875 C-66.98622409 177.13556671 -70.18398943 175.07532377 -73.56640625 170.6171875 C-75.82875083 168.06511487 -78.60614313 166.2864511 -81.42578125 164.39453125 C-81.94527344 163.93433594 -82.46476562 163.47414062 -83 163 C-83 162.01 -83 161.02 -83 160 C-83.99 159.67 -84.98 159.34 -86 159 C-89.10381145 154.92624747 -91.0906173 150.73194842 -93 146 C-93.56196402 144.74975895 -94.12445306 143.49975373 -94.6875 142.25 C-96 139 -96 139 -96 136 C-95.030625 135.90203125 -94.06125 135.8040625 -93.0625 135.703125 C-67.7721674 132.96068465 -44.44573285 124.91650264 -26.30859375 106.2265625 C-24 104 -24 104 -22 104 C-21.5978125 103.1028125 -21.5978125 103.1028125 -21.1875 102.1875 C-20.00913692 100.01683117 -18.76939019 98.69182788 -17 97 C-16.9753499 102.10863896 -16.95716393 107.21724359 -16.94506836 112.32592773 C-16.94002796 114.06519168 -16.9331957 115.80445136 -16.92456055 117.54370117 C-16.91248208 120.03825937 -16.90676892 122.53276173 -16.90234375 125.02734375 C-16.89718246 125.80963852 -16.89202118 126.59193329 -16.88670349 127.39793396 C-16.88650774 129.26567114 -16.93800306 131.13329204 -17 133 C-18.83219646 134.83219646 -21.75713741 134.23901328 -24.22265625 134.31640625 C-25.48271484 134.35830078 -26.74277344 134.40019531 -28.04101562 134.44335938 C-29.38150736 134.48317596 -30.7220022 134.52288814 -32.0625 134.5625 C-33.40691523 134.60568042 -34.7513166 134.64929456 -36.09570312 134.69335938 C-39.3970234 134.79985358 -42.69842236 134.9018646 -46 135 C-47.23060421 137.46120841 -47.2057723 139.25776866 -47.31640625 142.0078125 C-47.35830078 142.99394531 -47.40019531 143.98007813 -47.44335938 144.99609375 C-47.48267578 146.02863281 -47.52199219 147.06117188 -47.5625 148.125 C-47.60568359 149.16527344 -47.64886719 150.20554688 -47.69335938 151.27734375 C-47.7996288 153.85142528 -47.90166583 156.42560508 -48 159 C-47.06994141 159.185625 -47.06994141 159.185625 -46.12109375 159.375 C-44 160 -44 160 -42.0625 162 C-38.07679793 165.86492322 -32.6967666 165.13565888 -27.42749023 165.08520508 C-26.68216034 165.08202271 -25.93683044 165.07884033 -25.16891479 165.07556152 C-22.71539062 165.06301738 -20.2620448 165.04213659 -17.80859375 165.01953125 C-16.96866442 165.01257421 -16.12873508 165.00561718 -15.26335335 164.99844933 C-10.82368275 164.96112806 -6.38413394 164.91714784 -1.94458008 164.86791992 C2.64089438 164.81844078 7.2261942 164.79234293 11.81187534 164.77148914 C15.34048941 164.75113513 18.86876047 164.71326758 22.39716911 164.6706295 C24.08799733 164.65328534 25.77890738 164.64259357 27.46982002 164.63868141 C29.83280262 164.63160837 32.19422418 164.59971862 34.55688477 164.56176758 C35.2546553 164.5652269 35.95242584 164.56868622 36.67134094 164.57225037 C39.99437286 164.49326867 41.74253438 164.19587349 44.4183197 162.16020203 C48.16015985 157.04973142 47.36461579 149.13412451 47 143 C46.67 142.01 46.34 141.02 46 140 C45.34 139.67 44.68 139.34 44 139 C43.97421875 140.25296875 43.9484375 141.5059375 43.921875 142.796875 C43.86558831 144.44795123 43.8082411 146.09899155 43.75 147.75 C43.73582031 148.575 43.72164062 149.4 43.70703125 150.25 C43.46067052 156.35974605 43.46067052 156.35974605 41.15625 159.5625 C38.32173841 161.4521744 36.33523099 161.30320282 33 161 C33.99 160.67 34.98 160.34 36 160 C36 159.34 36 158.68 36 158 C37.65 157.67 39.3 157.34 41 157 C40.67 149.74 40.34 142.48 40 135 C31.42 135 22.84 135 14 135 C14 134.67 14 134.34 14 134 C16.97 134 19.94 134 23 134 C22.89229573 120.8562381 22.77962183 107.71252899 22.66066074 94.56886387 C22.60557317 88.46527914 22.5521764 82.36168952 22.50268555 76.25805664 C22.45483234 70.36415046 22.40248307 64.47029957 22.34705925 58.57645988 C22.3267303 56.33150554 22.30800218 54.08653609 22.29092598 51.84155464 C22.26667131 48.68931773 22.23664722 45.53718329 22.20532227 42.38500977 C22.1995668 41.46359192 22.19381134 40.54217407 22.18788147 39.59283447 C22.14056504 35.38451974 22.00958798 31.19145099 21.67466736 26.99546814 C21.61851226 26.28069274 21.56235716 25.56591734 21.50450039 24.82948208 C21.08268334 22.58451135 21.08268334 22.58451135 18 20.6875 C17.01 20.130625 16.02 19.57375 15 19 C14.505 17.02 14.505 17.02 14 15 C10.37 14.67 6.74 14.34 3 14 C0 3.375 0 3.375 0 0 Z " fill="#0EC0E0" transform="translate(132,24)"/>
<path d="M0 0 C0.86800568 28.10630086 1.09155061 56.19513985 1.0625 84.3125 C1.06164398 85.14689983 1.06078796 85.98129967 1.05990601 86.84098434 C1.04846363 97.22734764 1.02752973 107.61366671 1 118 C9.58 118 18.16 118 27 118 C27.68554035 121.42770176 28.12324755 123.85457123 28.09765625 127.20703125 C28.09282227 128.33334961 28.09282227 128.33334961 28.08789062 129.48242188 C28.07532227 130.63581055 28.07532227 130.63581055 28.0625 131.8125 C28.05798828 132.60076172 28.05347656 133.38902344 28.04882812 134.20117188 C28.03711312 136.13414761 28.01917998 138.06708393 28 140 C26.35 140.33 24.7 140.66 23 141 C23 141.66 23 142.32 23 143 C19.21327748 144.21278407 15.4577534 144.14780636 11.52514648 144.14526367 C10.40496124 144.15030159 10.40496124 144.15030159 9.262146 144.15544128 C6.79844492 144.16492551 4.33481194 144.16689284 1.87109375 144.16796875 C0.15763826 144.17118209 -1.55581694 144.17454622 -3.26927185 144.17805481 C-6.85782508 144.18403903 -10.44635424 144.18589533 -14.03491211 144.18530273 C-18.63740295 144.18520092 -23.23974018 144.19887583 -27.84219456 144.21607494 C-31.3791729 144.2271795 -34.91611384 144.22922245 -38.45310783 144.22869301 C-40.15040557 144.22987458 -41.84770422 144.23430628 -43.54498482 144.24202538 C-45.91494749 144.25179813 -48.28457318 144.24895857 -50.65454102 144.24291992 C-51.7089463 144.25134918 -51.7089463 144.25134918 -52.78465271 144.25994873 C-56.42430102 144.23632496 -57.8799503 144.08003313 -61 142 C-61.37231445 139.80102539 -61.37231445 139.80102539 -61.36328125 137.09765625 C-61.36263672 136.12505859 -61.36199219 135.15246094 -61.36132812 134.15039062 C-61.34521484 133.13138672 -61.32910156 132.11238281 -61.3125 131.0625 C-61.31572266 130.04736328 -61.31894531 129.03222656 -61.32226562 127.98632812 C-61.26704165 120.40056248 -61.26704165 120.40056248 -59 117 C-56.20263672 116.56762695 -56.20263672 116.56762695 -52.6796875 116.48828125 C-51.42285156 116.45283203 -50.16601562 116.41738281 -48.87109375 116.38085938 C-47.55238281 116.35830078 -46.23367187 116.33574219 -44.875 116.3125 C-43.53512241 116.27933471 -42.19527689 116.24484578 -40.85546875 116.20898438 C-37.5703967 116.12626673 -34.28559968 116.05719307 -31 116 C-30.31784918 89.99481437 -29.829609 64.01477372 -30 38 C-30.78576416 38.68944702 -30.78576416 38.68944702 -31.58740234 39.39282227 C-45.85352937 51.8957754 -45.85352937 51.8957754 -50.4375 52.3125 C-51.283125 52.209375 -52.12875 52.10625 -53 52 C-53.66 52.66 -54.32 53.32 -55 54 C-65.92117243 40.74734132 -65.92117243 40.74734132 -66.05078125 34.5859375 C-64.41916725 30.57059004 -61.27786677 29.10743497 -57.6875 26.875 C-52.33152138 23.37255508 -47.31139697 19.80281503 -42.625 15.4375 C-42.13032227 14.98963135 -41.63564453 14.5417627 -41.12597656 14.08032227 C-38.76199842 11.88536935 -36.82410075 9.74520225 -34.98828125 7.0859375 C-26.73674903 -4.0732775 -12.51597754 -0.85617611 0 0 Z " fill="#5474FD" transform="translate(145,41)"/>
<path d="M0 0 C1.98 0 3.96 0 6 0 C7.19469562 8.44710306 7.14567328 16.86316548 7.1328125 25.375 C7.13348705 26.95157893 7.13445833 28.52815775 7.13571167 30.10473633 C7.13717809 33.38933311 7.13506591 36.67390251 7.13037109 39.95849609 C7.12463664 44.17649477 7.12798275 48.39443032 7.13394356 52.61242676 C7.13754572 55.85850507 7.13641284 59.10456822 7.13381577 62.35064697 C7.13314748 63.90724698 7.1339715 65.46384836 7.13629532 67.02044678 C7.13882023 69.18424169 7.13498534 71.34793171 7.12939453 73.51171875 C7.12859894 74.74365967 7.12780334 75.97560059 7.12698364 77.24487305 C7 80 7 80 6 81 C3.85613343 81.15858842 1.70733162 81.25129298 -0.44140625 81.31640625 C-1.74658203 81.35830078 -3.05175781 81.40019531 -4.39648438 81.44335938 C-5.7851533 81.48317608 -7.17382522 81.52288825 -8.5625 81.5625 C-9.95509183 81.60567989 -11.34767028 81.649294 -12.74023438 81.69335938 C-16.16004801 81.79985876 -19.57993763 81.90186923 -23 82 C-23.96088383 84.88265149 -24.11670941 86.67662271 -24.09765625 89.66796875 C-24.09443359 90.56064453 -24.09121094 91.45332031 -24.08789062 92.37304688 C-24.07951172 93.30181641 -24.07113281 94.23058594 -24.0625 95.1875 C-24.05573242 96.59805664 -24.05573242 96.59805664 -24.04882812 98.03710938 C-24.03704626 100.35813712 -24.02059558 102.67903644 -24 105 C-24.66 105 -25.32 105 -26 105 C-26.05800828 101.39590081 -26.09359869 97.79192149 -26.125 94.1875 C-26.14175781 93.16333984 -26.15851563 92.13917969 -26.17578125 91.08398438 C-26.18222656 90.10107422 -26.18867187 89.11816406 -26.1953125 88.10546875 C-26.20578613 87.19949951 -26.21625977 86.29353027 -26.22705078 85.36010742 C-26 83 -26 83 -24 80 C-21.20263672 79.56762695 -21.20263672 79.56762695 -17.6796875 79.48828125 C-16.42285156 79.45283203 -15.16601562 79.41738281 -13.87109375 79.38085938 C-12.55238281 79.35830078 -11.23367187 79.33574219 -9.875 79.3125 C-8.53512241 79.27933471 -7.19527689 79.24484578 -5.85546875 79.20898438 C-2.5703967 79.12626673 0.71440032 79.05719307 4 79 C4.68215082 52.99481437 5.170391 27.01477372 5 1 C3.68 2.32 2.36 3.64 1 5 C0.34 4.67 -0.32 4.34 -1 4 C-0.67 2.68 -0.34 1.36 0 0 Z " fill="#4798F7" transform="translate(110,78)"/>
<path d="M0 0 C0 0.66 0 1.32 0 2 C-7.30708661 1.24409449 -7.30708661 1.24409449 -10.75 0.03125 C-14.61932088 -1.19651528 -18.35334045 -1.68138113 -22.375 -2.125 C-23.11105469 -2.21136719 -23.84710938 -2.29773438 -24.60546875 -2.38671875 C-26.40299182 -2.59681885 -28.20141342 -2.79920767 -30 -3 C-29.7834375 -2.24074219 -29.566875 -1.48148438 -29.34375 -0.69921875 C-29.0653125 0.29464844 -28.786875 1.28851563 -28.5 2.3125 C-28.2215625 3.29863281 -27.943125 4.28476562 -27.65625 5.30078125 C-27 8 -27 8 -27 11 C-23.37 11.33 -19.74 11.66 -16 12 C-15.19315174 15.22739305 -14.89343147 17.1962999 -14.97827148 20.40136719 C-14.99836777 21.2619574 -15.01846405 22.12254761 -15.03916931 23.00921631 C-15.07972191 24.38910736 -15.07972191 24.38910736 -15.12109375 25.796875 C-15.15651024 27.22003021 -15.15651024 27.22003021 -15.19264221 28.67193604 C-15.26912994 31.69811521 -15.35321847 34.72402884 -15.4375 37.75 C-15.49073558 39.80337248 -15.54347588 41.85675787 -15.59570312 43.91015625 C-15.72472498 48.94027188 -15.86056335 53.97016273 -16 59 C-16.33 59 -16.66 59 -17 59 C-17 44.15 -17 29.3 -17 14 C-20.63 13.67 -24.26 13.34 -28 13 C-30.475 5.08 -30.475 5.08 -33 -3 C-40.59 -2.67 -48.18 -2.34 -56 -2 C-56 -2.33 -56 -2.66 -56 -3 C-39.95303818 -6.33443363 -14.73543441 -8.80298679 0 0 Z " fill="#6CC8EE" transform="translate(162,27)"/>
<path d="M0 0 C0.66 0 1.32 0 2 0 C2 10.56 2 21.12 2 32 C7.28 32 12.56 32 18 32 C18 32.99 18 33.98 18 35 C18.66 35.33 19.32 35.66 20 36 C20.11638036 39.24969769 20.18730581 42.4988583 20.25 45.75 C20.30027344 47.13058594 20.30027344 47.13058594 20.3515625 48.5390625 C20.45024168 55.34792584 20.45024168 55.34792584 18.1875 58.625 C15.33128234 60.42033681 13.30891661 60.3008106 10 60 C11.485 59.505 11.485 59.505 13 59 C13 58.34 13 57.68 13 57 C15.475 56.505 15.475 56.505 18 56 C17.67 48.74 17.34 41.48 17 34 C8.42 34 -0.16 34 -9 34 C-9 33.67 -9 33.34 -9 33 C-6.03 33 -3.06 33 0 33 C0 22.11 0 11.22 0 0 Z " fill="#5FC4E4" transform="translate(155,125)"/>
<path d="M0 0 C-0.33 0.99 -0.66 1.98 -1 3 C-7.63160614 6.14496544 -15.42246393 6.80761742 -22.625 7.6875 C-23.62917969 7.81705078 -24.63335937 7.94660156 -25.66796875 8.08007812 C-28.11113206 8.39419912 -30.55498368 8.70070845 -33 9 C-33 11.31 -33 13.62 -33 16 C-32.21625 16.0825 -31.4325 16.165 -30.625 16.25 C-28 17 -28 17 -26.625 18.875 C-26 21 -26 21 -27 24 C-25.67751622 26.51688126 -25.67751622 26.51688126 -23.75 29.0625 C-23.12609375 29.94035156 -22.5021875 30.81820312 -21.859375 31.72265625 C-20.02765385 34.19367889 -20.02765385 34.19367889 -17 36 C-17 36.66 -17 37.32 -17 38 C-15.515 38.495 -15.515 38.495 -14 39 C-14 39.66 -14 40.32 -14 41 C-12.515 41.495 -12.515 41.495 -11 42 C-9.8125 44.5625 -9.8125 44.5625 -9 47 C-12.89002847 43.83369776 -16.45021135 40.54978865 -20 37 C-20.763125 36.46375 -21.52625 35.9275 -22.3125 35.375 C-22.869375 34.92125 -23.42625 34.4675 -24 34 C-24 33.01 -24 32.02 -24 31 C-24.99 30.67 -25.98 30.34 -27 30 C-30.10381145 25.92624747 -32.0906173 21.73194842 -34 17 C-34.56196402 15.74975895 -35.12445306 14.49975373 -35.6875 13.25 C-37 10 -37 10 -37 7 C-36.030625 6.90203125 -35.06125 6.8040625 -34.0625 6.703125 C-23.03266645 5.50287264 -10.7339485 0 0 0 Z " fill="#1BBED8" transform="translate(73,153)"/>
<path d="M0 0 C0.6875 1.6875 0.6875 1.6875 1 4 C0.02854777 5.68346617 -0.97670532 7.34753342 -2 9 C-5.1689137 15.64006482 -7.44561302 21.65437256 -8 29 C-8.33 29.33 -8.66 29.66 -9 30 C-9.20968751 32.32986123 -9.36815389 34.66444036 -9.5 37 C-9.88888889 43.88888889 -9.88888889 43.88888889 -11 45 C-10.9340266 46.96120931 -10.7951934 48.92007579 -10.625 50.875 C-10.52445313 52.04289062 -10.42390625 53.21078125 -10.3203125 54.4140625 C-10.21460938 55.59742188 -10.10890625 56.78078125 -10 58 C-9.91492188 59.08023438 -9.82984375 60.16046875 -9.7421875 61.2734375 C-9.66226562 62.25570312 -9.58234375 63.23796875 -9.5 64.25 C-9.4278125 65.14203125 -9.355625 66.0340625 -9.28125 66.953125 C-9.21140796 68.99001518 -9.21140796 68.99001518 -8 70 C-7.85884839 72.67058851 -7.95752893 75.32432238 -8 78 C-13.93676312 72.06323688 -13.33165787 58.51505925 -13.375 50.5625 C-13.21588658 32.82930963 -9.20513807 15.28887943 0 0 Z " fill="#64BFF9" transform="translate(41,73)"/>
<path d="M0 0 C1.93166016 0.01740234 1.93166016 0.01740234 3.90234375 0.03515625 C5.19269531 0.04417969 6.48304688 0.05320313 7.8125 0.0625 C8.81152344 0.07410156 9.81054688 0.08570313 10.83984375 0.09765625 C7.28317406 2.46876938 3.81543034 3.22723733 -0.28515625 4.16015625 C-1.00703125 4.33353516 -1.72890625 4.50691406 -2.47265625 4.68554688 C-10.88181023 6.63820629 -19.10490152 7.2645918 -27.72265625 7.22265625 C-28.52123047 7.22652344 -29.31980469 7.23039063 -30.14257812 7.234375 C-35.23438355 7.2260754 -40.12021972 6.82506977 -45.16015625 6.09765625 C-45.16015625 5.76765625 -45.16015625 5.43765625 -45.16015625 5.09765625 C-33.61015625 5.09765625 -22.06015625 5.09765625 -10.16015625 5.09765625 C-10.16015625 4.43765625 -10.16015625 3.77765625 -10.16015625 3.09765625 C-8.70609375 2.63359375 -8.70609375 2.63359375 -7.22265625 2.16015625 C-1.09374501 0.03379929 -1.09374501 0.03379929 0 0 Z " fill="#93A3ED" transform="translate(156.16015625,234.90234375)"/>
<path d="M0 0 C0.33 0 0.66 0 1 0 C1.0246501 5.10863896 1.04283607 10.21724359 1.05493164 15.32592773 C1.05997204 17.06519168 1.0668043 18.80445136 1.07543945 20.54370117 C1.08751792 23.03825937 1.09323108 25.53276173 1.09765625 28.02734375 C1.10281754 28.80963852 1.10797882 29.59193329 1.11329651 30.39793396 C1.11349226 32.26567114 1.06199694 34.13329204 1 36 C0 37 0 37 -2.50024414 37.11352539 C-3.58426514 37.10828857 -4.66828613 37.10305176 -5.78515625 37.09765625 C-7.53989258 37.09282227 -7.53989258 37.09282227 -9.33007812 37.08789062 C-11.17762695 37.07532227 -11.17762695 37.07532227 -13.0625 37.0625 C-14.91584961 37.05573242 -14.91584961 37.05573242 -16.80664062 37.04882812 C-19.87114117 37.03699608 -22.93554721 37.02051173 -26 37 C-26 36.67 -26 36.34 -26 36 C-13.625 35.505 -13.625 35.505 -1 35 C-1.01160156 32.55722656 -1.02320312 30.11445313 -1.03515625 27.59765625 C-1.04294684 25.24129364 -1.04902359 22.88493244 -1.05493164 20.52856445 C-1.05997174 18.88630536 -1.06680378 17.24405077 -1.07543945 15.60180664 C-1.08751926 13.24624521 -1.09323139 10.89074291 -1.09765625 8.53515625 C-1.10281754 7.79660904 -1.10797882 7.05806183 -1.11329651 6.2971344 C-1.1134925 4.53101912 -1.06194719 2.76502854 -1 1 C-0.67 0.67 -0.34 0.34 0 0 Z " fill="#23B5E2" transform="translate(114,121)"/>
<path d="M0 0 C2.72947644 0.30996259 5.45855985 0.62287975 8.1875 0.9375 C8.95642578 1.02451172 9.72535156 1.11152344 10.51757812 1.20117188 C11.26845703 1.28818359 12.01933594 1.37519531 12.79296875 1.46484375 C13.4789917 1.543396 14.16501465 1.62194824 14.87182617 1.70288086 C17 2 17 2 19.43164062 2.52734375 C22.11664631 3.02146647 24.57275011 3.11360965 27.30078125 3.09765625 C28.27724609 3.09443359 29.25371094 3.09121094 30.25976562 3.08789062 C31.77086914 3.07532227 31.77086914 3.07532227 33.3125 3.0625 C34.33923828 3.05798828 35.36597656 3.05347656 36.42382812 3.04882812 C38.94927882 3.03708184 41.47460905 3.02065565 44 3 C44 2.67 44 2.34 44 2 C47.96 2 51.92 2 56 2 C56 2.33 56 2.66 56 3 C49.36987189 5.56184368 42.89424065 5.37211125 35.89990234 5.37060547 C33.66553125 5.3749217 31.43323355 5.41111927 29.19921875 5.44921875 C18.92940486 5.52671714 9.82781296 3.94051362 0 1 C0 0.67 0 0.34 0 0 Z " fill="#2EB1ED" transform="translate(96,218)"/>
<path d="M0 0 C0 3.63151113 -1.01440206 5.10282446 -2.875 8.1875 C-3.40867188 9.08855469 -3.94234375 9.98960937 -4.4921875 10.91796875 C-4.98976562 11.60503906 -5.48734375 12.29210937 -6 13 C-6.66 13 -7.32 13 -8 13 C-8.33 13.99 -8.66 14.98 -9 16 C-10.63765111 16.93580063 -12.27951975 17.8652636 -13.9453125 18.75 C-17.67719113 21.02034441 -20.80270894 24.04354385 -24 27 C-24.66 26.67 -25.32 26.34 -26 26 C-22.94132605 22.74280635 -19.64895667 20.25545325 -16 17.6875 C-11.16247996 14.12703817 -8.479774 11.41041599 -6 6 C-5.34 5.67 -4.68 5.34 -4 5 C-3.67 4.01 -3.34 3.02 -3 2 C-2.01 1.34 -1.02 0.68 0 0 Z " fill="#409CF6" transform="translate(211,179)"/>
<path d="M0 0 C0.66 0.33 1.32 0.66 2 1 C-4.70193404 7.51143979 -18.07497249 20 -28 20 C-28 19.01 -28 18.02 -28 17 C-27.47792969 16.79246094 -26.95585938 16.58492187 -26.41796875 16.37109375 C-20.72375517 13.98770137 -15.70452768 11.01852877 -10.578125 7.5859375 C-8.10705835 6.06585711 -5.72113139 4.98861248 -3 4 C-3 3.34 -3 2.68 -3 2 C-2.01 1.34 -1.02 0.68 0 0 Z " fill="#51E2F0" transform="translate(102,132)"/>
<path d="M0 0 C3.761126 3.55447073 6.45934299 7.46903602 9.31640625 11.7578125 C10.97199107 14.22131791 10.97199107 14.22131791 14 16 C14 16.66 14 17.32 14 18 C14.99 18.33 15.98 18.66 17 19 C17 19.66 17 20.32 17 21 C17.99 21.33 18.98 21.66 20 22 C21.1875 24.5625 21.1875 24.5625 22 27 C18.10997153 23.83369776 14.54978865 20.54978865 11 17 C10.236875 16.46375 9.47375 15.9275 8.6875 15.375 C8.130625 14.92125 7.57375 14.4675 7 14 C7 13.01 7 12.02 7 11 C6.01 10.67 5.02 10.34 4 10 C1.13064457 6.31082874 0 4.75567676 0 0 Z " fill="#3F9CF5" transform="translate(42,173)"/>
<path d="M0 0 C0.804375 0.4640625 0.804375 0.4640625 1.625 0.9375 C4.3984957 2.17827439 7.00042837 2.5909675 10 3 C10.33 4.32 10.66 5.64 11 7 C12.65 6.34 14.3 5.68 16 5 C16.95024979 8.69541586 16.95024979 11.30458414 16 15 C15.2575 14.21625 14.515 13.4325 13.75 12.625 C11.29714924 10.02603885 11.29714924 10.02603885 9 9 C5.03138284 7.01569142 2.42002622 3.63003934 0 0 Z " fill="#4C76F8" transform="translate(192,45)"/>
<path d="M0 0 C0 0.33 0 0.66 0 1 C-8.25 1 -16.5 1 -25 1 C-25.33 1.99 -25.66 2.98 -26 4 C-27.70703125 5.6484375 -27.70703125 5.6484375 -29.8125 7.375 C-32.30441774 9.47158676 -34.22844128 11.29189719 -36.25 13.875 C-38.22266956 16.27038446 -39.06597342 16.43016839 -42 17 C-40.66329341 15.38188149 -39.30899287 13.7768202 -37.8984375 12.22265625 C-35.91614546 10.00696383 -35.91614546 10.00696383 -34.2890625 7.30859375 C-26.01554655 -3.83370838 -12.52839087 -0.89233553 0 0 Z " fill="#4A7FEC" transform="translate(144,41)"/>
<path d="M0 0 C1.9375 0.625 1.9375 0.625 4 2 C4.75 5.125 4.75 5.125 5 8 C5.99 8.33 6.98 8.66 8 9 C8 9.99 8 10.98 8 12 C8.66 12 9.32 12 10 12 C12.08386889 17.27913453 12.57910004 22.39538469 13 28 C11 27 11 27 10.0703125 24.55859375 C9.75835937 23.52863281 9.44640625 22.49867187 9.125 21.4375 C7.12998796 15.19288984 4.651094 9.71251156 1.25 4.125 C0 2 0 2 0 0 Z " fill="#4499F5" transform="translate(213,68)"/>
<path d="M0 0 C0.66 0 1.32 0 2 0 C2.11644156 3.08301416 2.18732432 6.16546123 2.25 9.25 C2.30027344 10.55904297 2.30027344 10.55904297 2.3515625 11.89453125 C2.45020688 18.35573842 2.45020688 18.35573842 0.1875 21.59375 C-2.66827906 23.42960797 -4.67198026 23.30254725 -8 23 C-7.01 22.67 -6.02 22.34 -5 22 C-5 21.34 -5 20.68 -5 20 C-3.35 19.67 -1.7 19.34 0 19 C-0.08378906 17.71222656 -0.16757813 16.42445313 -0.25390625 15.09765625 C-0.35704621 13.41928773 -0.45989584 11.74090136 -0.5625 10.0625 C-0.61857422 9.21236328 -0.67464844 8.36222656 -0.73242188 7.48632812 C-0.80493164 6.27299805 -0.80493164 6.27299805 -0.87890625 5.03515625 C-0.9260376 4.2862915 -0.97316895 3.53742676 -1.02172852 2.76586914 C-1 1 -1 1 0 0 Z " fill="#9CB0ED" transform="translate(173,162)"/>
<path d="M0 0 C0.66 0 1.32 0 2 0 C1.875 1.875 1.875 1.875 1 4 C-2 5.125 -2 5.125 -5 6 C-5.33 6.66 -5.66 7.32 -6 8 C-10.72067545 10.36033773 -14.71731765 11.40196049 -20 12 C-21.33917261 12.30903983 -22.67653254 12.62942911 -24 13 C-22.8125 11.5 -22.8125 11.5 -21 10 C-18.3125 9.8125 -18.3125 9.8125 -16 10 C-16 9.34 -16 8.68 -16 8 C-15.05125 7.71125 -14.1025 7.4225 -13.125 7.125 C-9.94788422 6.23174891 -9.94788422 6.23174891 -8 4 C-5.34462628 3.43479997 -2.70855287 3.26211802 0 3 C0 2.01 0 1.02 0 0 Z " fill="#2AB3EB" transform="translate(180,206)"/>
<path d="M0 0 C4.10959039 0.45662115 6.31677104 0.80567981 9 4 C11.91765 5.9451 13.62537285 6.45276317 17 7 C17 7.66 17 8.32 17 9 C19.475 9.495 19.475 9.495 22 10 C18.52128379 11.15957207 17.65780355 10.77456651 14.3125 9.5625 C13.50425781 9.27503906 12.69601563 8.98757812 11.86328125 8.69140625 C11.24839844 8.46324219 10.63351563 8.23507813 10 8 C10 7.34 10 6.68 10 6 C9.01 6.33 8.02 6.66 7 7 C4.48301368 5.92745123 2.33194455 4.45196548 0 3 C0 2.01 0 1.02 0 0 Z " fill="#4099F5" transform="translate(74,207)"/>
<path d="M0 0 C1.89569179 3.79138359 0.11393596 8.08884707 -1 12 C-2.78045467 16.75883059 -4.88433237 21.38278825 -7 26 C-8 23 -8 23 -7.0703125 21.109375 C-6.54050781 20.06523437 -6.54050781 20.06523437 -6 19 C-5.76020238 16.63777768 -5.76020238 16.63777768 -5.875 14.25 C-5.89304688 13.45078125 -5.91109375 12.6515625 -5.9296875 11.828125 C-5.95289063 11.22484375 -5.97609375 10.6215625 -6 10 C-5.34 10 -4.68 10 -4 10 C-3.814375 8.88625 -3.814375 8.88625 -3.625 7.75 C-2.95900899 4.81963956 -2.16552089 2.16552089 0 0 Z " fill="#2FB1ED" transform="translate(226,143)"/>
<path d="M0 0 C-4.41738886 3.33997694 -7.36427203 4.44747765 -13 5 C-13.33 5.33 -13.66 5.66 -14 6 C-16.01964199 6.07244053 -18.04167124 6.08377188 -20.0625 6.0625 C-21.16722656 6.05347656 -22.27195313 6.04445312 -23.41015625 6.03515625 C-24.69212891 6.01775391 -24.69212891 6.01775391 -26 6 C-26 5.67 -26 5.34 -26 5 C-24.845 4.896875 -23.69 4.79375 -22.5 4.6875 C-18.01270462 4.13253414 -14.16273322 2.70136607 -10 1 C-3.7 -1.42307692 -3.7 -1.42307692 0 0 Z " fill="#448CF6" transform="translate(164,218)"/>
<path d="M0 0 C-0.56263958 3.50509251 -1.65185182 4.95268008 -4.375 7.1875 C-5.28378906 7.95126953 -5.28378906 7.95126953 -6.2109375 8.73046875 C-8 10 -8 10 -11 11 C-12.68538601 12.99665314 -12.68538601 12.99665314 -14 15 C-15.32 14.67 -16.64 14.34 -18 14 C-17.26394531 13.40832031 -16.52789062 12.81664062 -15.76953125 12.20703125 C-14.79371094 11.41683594 -13.81789063 10.62664062 -12.8125 9.8125 C-11.36810547 8.64654297 -11.36810547 8.64654297 -9.89453125 7.45703125 C-6.94467869 5.03000093 -6.94467869 5.03000093 -4.26171875 2.19921875 C-2 0 -2 0 0 0 Z " fill="#1BC2D9" transform="translate(110,128)"/>
<path d="M0 0 C1.98 0 3.96 0 6 0 C6 11.55 6 23.1 6 35 C5.67 35 5.34 35 5 35 C5 23.78 5 12.56 5 1 C3.68 2.32 2.36 3.64 1 5 C0.34 4.67 -0.32 4.34 -1 4 C-0.67 2.68 -0.34 1.36 0 0 Z " fill="#58A0EA" transform="translate(110,78)"/>
<path d="M0 0 C0.66 0 1.32 0 2 0 C3.14654482 2.29308963 3.19729117 3.79909656 3.31640625 6.3515625 C3.35830078 7.20234375 3.40019531 8.053125 3.44335938 8.9296875 C3.48267578 9.81914062 3.52199219 10.70859375 3.5625 11.625 C3.60568359 12.5221875 3.64886719 13.419375 3.69335938 14.34375 C3.79956861 16.56234283 3.90161194 18.7810488 4 21 C2.02 21.99 2.02 21.99 0 23 C0.165 21.72125 0.33 20.4425 0.5 19.125 C1.20417278 12.75726618 1.79319224 6.21924611 0 0 Z " fill="#6DD2E4" transform="translate(178,163)"/>
<path d="M0 0 C0.66 0 1.32 0 2 0 C1.07400989 3.19598873 0.60848702 4.65576441 -2.34765625 6.328125 C-3.24355469 6.63234375 -4.13945313 6.9365625 -5.0625 7.25 C-8.29257399 8.18976119 -8.29257399 8.18976119 -11 10 C-12.66617115 10.04063832 -14.33388095 10.042721 -16 10 C-12.93690154 7.56989338 -9.76259336 5.70829394 -6.3125 3.875 C-2.9442511 2.23730811 -2.9442511 2.23730811 0 0 Z " fill="#17C1D8" transform="translate(90,143)"/>
<path d="M0 0 C0.66666667 2.66666667 1.33333333 5.33333333 2 8 C0.68 7.67 -0.64 7.34 -2 7 C-2.804375 7.94875 -3.60875 8.8975 -4.4375 9.875 C-5.11619141 10.67550781 -5.11619141 10.67550781 -5.80859375 11.4921875 C-7.0878152 13.00594079 -7.0878152 13.00594079 -8 15 C-8.66 15 -9.32 15 -10 15 C-8.59601721 10.89889238 -6.62912962 8.01910841 -3.875 4.6875 C-3.15054688 3.80449219 -2.42609375 2.92148437 -1.6796875 2.01171875 C-1.12539063 1.34785156 -0.57109375 0.68398438 0 0 Z " fill="#869BF0" transform="translate(40,43)"/>
<path d="M0 0 C0.66 0.33 1.32 0.66 2 1 C1.360625 1.268125 0.72125 1.53625 0.0625 1.8125 C-2.33131686 2.88667752 -2.33131686 2.88667752 -3 6 C-4.671875 7.39453125 -4.671875 7.39453125 -6.75 8.8125 C-10.52409466 11.52088807 -13.19166858 14.31406501 -16 18 C-16.99 17.67 -17.98 17.34 -19 17 C-13.01215417 10.81402692 -7.15672794 4.86001295 0 0 Z " fill="#66CBF8" transform="translate(72,39)"/>
<path d="M0 0 C7.9787809 -0.30687619 16.91697905 -0.01371187 24 4 C24 4.66 24 5.32 24 6 C18.9875209 5.48146768 14.78031662 4.62530765 10 3 C6.67924926 2.2648338 3.34378178 1.62117685 0 1 C0 0.67 0 0.34 0 0 Z " fill="#35ADF0" transform="translate(138,23)"/>
<path d="M0 0 C0.99 0.33 1.98 0.66 3 1 C-0.96 6.94 -0.96 6.94 -5 13 C-5.33 11.68 -5.66 10.36 -6 9 C-5.34 9 -4.68 9 -4 9 C-4.33 7.02 -4.66 5.04 -5 3 C-4.34 2.67 -3.68 2.34 -3 2 C-2.34 2.33 -1.68 2.66 -1 3 C-0.67 2.01 -0.34 1.02 0 0 Z " fill="#7C90F1" transform="translate(227,185)"/>
<path d="M0 0 C0.33 0 0.66 0 1 0 C1.13277344 1.28777344 1.26554687 2.57554688 1.40234375 3.90234375 C1.58049899 5.58075362 1.75889692 7.25913773 1.9375 8.9375 C2.02451172 9.78763672 2.11152344 10.63777344 2.20117188 11.51367188 C2.28818359 12.32255859 2.37519531 13.13144531 2.46484375 13.96484375 C2.543396 14.7137085 2.62194824 15.46257324 2.70288086 16.23413086 C2.8280738 18.02140013 2.8280738 18.02140013 4 19 C4.14115161 21.67058851 4.04247107 24.32432238 4 27 C1.19624052 24.19624052 1.29228077 21.21444789 0.875 17.4375 C0.79008301 16.71820313 0.70516602 15.99890625 0.61767578 15.2578125 C0.04516658 10.1432434 -0.18388054 5.14865526 0 0 Z " fill="#67D3F5" transform="translate(29,124)"/>
<path d="M0 0 C-3.48187753 2.32125169 -6.87171039 3.15122685 -10.875 4.125 C-11.58269531 4.30675781 -12.29039063 4.48851562 -13.01953125 4.67578125 C-16.74802173 5.59922489 -20.1557375 6.22613309 -24 6 C-20.71094419 3.80729612 -18.28126342 3.25778918 -14.4375 2.4375 C-2.82352941 -0.06138107 -2.82352941 -0.06138107 0 0 Z " fill="#4CE1EE" transform="translate(71,153)"/>
<path d="M0 0 C2.60608273 2.5162178 4.89381685 5.05134359 7 8 C7.99 7.34 8.98 6.68 10 6 C11.32 6.66 12.64 7.32 14 8 C12.3125 9.625 12.3125 9.625 10 11 C6.00484391 10.10108988 3.5351669 8.16895863 1 5 C0.25 2.25 0.25 2.25 0 0 Z " fill="#82C4F9" transform="translate(83,86)"/>
<path d="M0 0 C3 3.75 3 3.75 3 6 C3.78375 6.0825 4.5675 6.165 5.375 6.25 C8 7 8 7 9.3125 9.0625 C9.539375 9.701875 9.76625 10.34125 10 11 C6 11 6 11 3.875 9.25 C1.23744448 6.08493337 0 4.15757798 0 0 Z " fill="#25B4E9" transform="translate(37,163)"/>
<path d="M0 0 C0.33 0 0.66 0 1 0 C1.04241723 2.33294775 1.04092937 4.66702567 1 7 C0.67 7.33 0.34 7.66 0 8 C-0.28528471 11.62266294 -0.44912228 15.24530434 -0.62109375 18.875 C-0.74613281 19.90625 -0.87117188 20.9375 -1 22 C-1.66 22.33 -2.32 22.66 -3 23 C-2.88535985 20.29087219 -2.75862846 17.58320339 -2.625 14.875 C-2.5940625 14.11445312 -2.563125 13.35390625 -2.53125 12.5703125 C-2.297631 8.05367842 -1.67345883 4.25847653 0 0 Z " fill="#64D3F5" transform="translate(32,95)"/>
<path d="M0 0 C-0.33 1.32 -0.66 2.64 -1 4 C-2.32 4 -3.64 4 -5 4 C-5.2475 4.639375 -5.495 5.27875 -5.75 5.9375 C-7 8 -7 8 -9 8.8125 C-11 9 -11 9 -13 8 C-11.2126038 6.66094733 -9.41995047 5.32890934 -7.625 4 C-6.62726563 3.2575 -5.62953125 2.515 -4.6015625 1.75 C-2 0 -2 0 0 0 Z " fill="#4F7FF0" transform="translate(95,64)"/>
<path d="M0 0 C0 0.66 0 1.32 0 2 C2.31 2 4.62 2 7 2 C7.33 2.66 7.66 3.32 8 4 C1.7945858 3.51679152 -3.99945246 2.66681876 -10 1 C-10 0.67 -10 0.34 -10 0 C-3.375 -1.125 -3.375 -1.125 0 0 Z " fill="#8798ED" transform="translate(103,236)"/>
<path d="M0 0 C0.99 0.33 1.98 0.66 3 1 C3 2.32 3 3.64 3 5 C3.66 5.33 4.32 5.66 5 6 C7.19191368 8.19191368 7.27869352 9.11477408 8 12 C8.66 12.66 9.32 13.32 10 14 C9.34 14.66 8.68 15.32 8 16 C6.66141476 13.71125827 5.32898986 11.41930344 4 9.125 C3.6184375 8.47402344 3.236875 7.82304687 2.84375 7.15234375 C0 2.2265625 0 2.2265625 0 0 Z " fill="#8B9DEE" transform="translate(22,174)"/>
<path d="M0 0 C-1.98 1.32 -3.96 2.64 -6 4 C-5.40075776 8.19469571 -4.42500059 12.00999834 -3 16 C-6.40756081 13.72829279 -6.8695411 12.82616857 -8 9 C-8.3298962 4.87629745 -8.3377499 3.50662485 -6 0 C-3.39677846 -0.97620808 -2.52782417 -1.26391209 0 0 Z " fill="#6BCEFA" transform="translate(86,70)"/>
<path d="M0 0 C2.94721162 2.74395564 5.19168608 5.38337216 7 9 C6.67 9.66 6.34 10.32 6 11 C2.80800833 8.58443874 0.25283313 6.31996462 -2 3 C-1.34 2.01 -0.68 1.02 0 0 Z " fill="#7991EF" transform="translate(281,331)"/>
<path d="M0 0 C0.66 0 1.32 0 2 0 C2 0.66 2 1.32 2 2 C4.63904371 3.41377341 7.07120629 4.37240135 10 5 C9.67 6.98 9.34 8.96 9 11 C5.74251349 7.83299923 2.72824638 4.63766184 0 1 C0 0.67 0 0.34 0 0 Z " fill="#8395F3" transform="translate(34,194)"/>
<path d="M0 0 C0.66 0.33 1.32 0.66 2 1 C1.0625 2.9375 1.0625 2.9375 -1 5 C-3.9858081 5.66174825 -6.94861869 5.87205948 -10 6 C-9.67 4.68 -9.34 3.36 -9 2 C-8.2575 2.226875 -7.515 2.45375 -6.75 2.6875 C-3.94085007 3.29476698 -3.94085007 3.29476698 -1.6875 1.5625 C-1.130625 1.046875 -0.57375 0.53125 0 0 Z " fill="#92E6E9" transform="translate(102,95)"/>
<path d="M0 0 C1.70840281 1.63412443 2.93453047 2.86906094 4 5 C3.94921875 7.09375 3.94921875 7.09375 3.6875 9.5 C3.60886719 10.2940625 3.53023438 11.088125 3.44921875 11.90625 C3 14 3 14 1 16 C1 14.02 1 12.04 1 10 C1.66 10 2.32 10 3 10 C2.67 8.35 2.34 6.7 2 5 C1.34 5 0.68 5 0 5 C0 3.35 0 1.7 0 0 Z " fill="#8F9FEF" transform="translate(306,370)"/>
<path d="M0 0 C-1.04874998 2.62187494 -1.64931313 3.79371361 -4.125 5.25 C-4.74375 5.4975 -5.3625 5.745 -6 6 C-6.99 5.34 -7.98 4.68 -9 4 C-4.5 0 -4.5 0 0 0 Z " fill="#4E76F4" transform="translate(105,58)"/>
<path d="M0 0 C0 2 0 2 -2.1875 4.4375 C-4.71503618 6.7403663 -6.93214924 8.50753206 -10 10 C-10.66 9.67 -11.32 9.34 -12 9 C-10.38050958 7.49405319 -8.75424026 5.99539332 -7.125 4.5 C-6.22007813 3.6646875 -5.31515625 2.829375 -4.3828125 1.96875 C-2 0 -2 0 0 0 Z " fill="#889DF2" transform="translate(57,29)"/>
<path d="M0 0 C0.99 0.33 1.98 0.66 3 1 C3 1.99 3 2.98 3 4 C3.66 4.33 4.32 4.66 5 5 C5.33 5.99 5.66 6.98 6 8 C6.66 8.33 7.32 8.66 8 9 C7.67 10.32 7.34 11.64 7 13 C1.62870159 4.738041 1.62870159 4.738041 0 0 Z " fill="#8595EE" transform="translate(250,393)"/>
<path d="M0 0 C3.57410797 2.68058098 6.31941902 5.42589203 9 9 C8.67 9.66 8.34 10.32 8 11 C3.49413822 8.80795913 1.86918556 6.62377481 0 2 C0 1.34 0 0.68 0 0 Z " fill="#31B2EF" transform="translate(201,53)"/>
<path d="M0 0 C0.804375 0.4640625 0.804375 0.4640625 1.625 0.9375 C4.06246442 2.15239728 4.06246442 2.15239728 7.1875 2.5 C8.115625 2.665 9.04375 2.83 10 3 C10.33 3.66 10.66 4.32 11 5 C10.01 6.485 10.01 6.485 9 8 C7 8 7 8 4.5 5.6875 C2 3 2 3 0 0 Z " fill="#4690F6" transform="translate(192,45)"/>
<path d="M0 0 C3.2578125 -0.29296875 3.2578125 -0.29296875 7.125 -0.1875 C9.04699219 -0.14689453 9.04699219 -0.14689453 11.0078125 -0.10546875 C11.99523437 -0.07066406 12.98265625 -0.03585938 14 0 C9.96076287 2.69282475 7.04463848 3.13300939 2.25 3.0625 C1.45078125 3.05347656 0.6515625 3.04445312 -0.171875 3.03515625 C-0.77515625 3.02355469 -1.3784375 3.01195312 -2 3 C-1.34 2.01 -0.68 1.02 0 0 Z " fill="#768AF0" transform="translate(153,235)"/>
<path d="M0 0 C1.51460611 5.25522425 0.69386582 9.47349519 -1.5625 14.4375 C-2.036875 15.283125 -2.51125 16.12875 -3 17 C-4.56393356 13.02623171 -3.36145292 10.18622097 -2.0625 6.25 C-1.68222656 5.07953125 -1.30195313 3.9090625 -0.91015625 2.703125 C-0.60980469 1.81109375 -0.30945313 0.9190625 0 0 Z " fill="#8FA0EA" transform="translate(17,81)"/>
<path d="M0 0 C-0.33 1.32 -0.66 2.64 -1 4 C-3.64 3.34 -6.28 2.68 -9 2 C-5.945634 -1.054366 -3.9532319 -1.22686507 0 0 Z " fill="#63D4F1" transform="translate(106,26)"/>
<path d="M0 0 C1.32 0 2.64 0 4 0 C4 0.66 4 1.32 4 2 C5.32 2.33 6.64 2.66 8 3 C8 3.99 8 4.98 8 6 C8.66 6 9.32 6 10 6 C9.67 6.66 9.34 7.32 9 8 C7.49712782 6.85793642 5.99776716 5.71125043 4.5 4.5625 C3.6646875 3.92441406 2.829375 3.28632813 1.96875 2.62890625 C1.3190625 2.09136719 0.669375 1.55382812 0 1 C0 0.67 0 0.34 0 0 Z " fill="#8499EF" transform="translate(48,210)"/>
<path d="M0 0 C0.66 0 1.32 0 2 0 C2 0.66 2 1.32 2 2 C2.99 2.33 3.98 2.66 5 3 C5 3.66 5 4.32 5 5 C5.99 5.33 6.98 5.66 8 6 C9.1875 8.5625 9.1875 8.5625 10 11 C2.75294118 5.07058824 2.75294118 5.07058824 0 2 C0 1.34 0 0.68 0 0 Z " fill="#33B1F0" transform="translate(54,189)"/>
<path d="M0 0 C0.33 0.66 0.66 1.32 1 2 C0.00390625 4.3828125 0.00390625 4.3828125 -1.4375 7.125 C-1.91058594 8.03507812 -2.38367188 8.94515625 -2.87109375 9.8828125 C-3.24363281 10.58148438 -3.61617187 11.28015625 -4 12 C-4.66 12 -5.32 12 -6 12 C-4.68139111 7.38486888 -2.78644563 3.90102388 0 0 Z " fill="#8998EA" transform="translate(29,58)"/>
<path d="M0 0 C0.99 0 1.98 0 3 0 C2.01 3.3 1.02 6.6 0 10 C-0.99 10 -1.98 10 -3 10 C-2.01 6.7 -1.02 3.4 0 0 Z " fill="#3CA5F2" transform="translate(215,169)"/>
<path d="M0 0 C2.9719385 1.12451727 5.33440687 2.22293791 8 4 C7.67 4.66 7.34 5.32 7 6 C5.35 6 3.7 6 2 6 C1.34 4.02 0.68 2.04 0 0 Z " fill="#2EB1EF" transform="translate(178,35)"/>
<path d="M0 0 C0.99 0 1.98 0 3 0 C3.66 3.3 4.32 6.6 5 10 C2.327664 6.43688534 1.22736029 4.15414253 0 0 Z " fill="#90A4F2" transform="translate(241,375)"/>
<path d="M0 0 C0 3.58912412 -0.66436554 4.10857029 -3 6.6875 C-3.556875 7.31011719 -4.11375 7.93273437 -4.6875 8.57421875 C-5.120625 9.04472656 -5.55375 9.51523438 -6 10 C-6.33 9.01 -6.66 8.02 -7 7 C-6.01 6.34 -5.02 5.68 -4 5 C-3.67 4.01 -3.34 3.02 -3 2 C-2.01 1.34 -1.02 0.68 0 0 Z " fill="#37AFF6" transform="translate(211,179)"/>
<path d="M0 0 C1.98 0 3.96 0 6 0 C6 2.31 6 4.62 6 7 C5.67 7 5.34 7 5 7 C5 5.02 5 3.04 5 1 C3.68 2.32 2.36 3.64 1 5 C0.34 4.67 -0.32 4.34 -1 4 C-0.67 2.68 -0.34 1.36 0 0 Z " fill="#8B9FEC" transform="translate(110,78)"/>
<path d="M0 0 C0.66666667 2.66666667 1.33333333 5.33333333 2 8 C0.68 7.67 -0.64 7.34 -2 7 C-2 3 -2 3 0 0 Z " fill="#6C87F3" transform="translate(40,43)"/>
<path d="M0 0 C1.65 0.99 3.3 1.98 5 3 C4.34 4.65 3.68 6.3 3 8 C2.566875 7.0409375 2.566875 7.0409375 2.125 6.0625 C1.17176549 3.84793921 1.17176549 3.84793921 -1 3 C-0.67 2.01 -0.34 1.02 0 0 Z " fill="#778EF7" transform="translate(209,36)"/>
<path d="M0 0 C0.66 0.33 1.32 0.66 2 1 C2 1.66 2 2.32 2 3 C3.32 3.66 4.64 4.32 6 5 C5.67 5.99 5.34 6.98 5 8 C2.5 6.625 2.5 6.625 0 5 C0 4.34 0 3.68 0 3 C-0.99 2.67 -1.98 2.34 -3 2 C-2.01 1.34 -1.02 0.68 0 0 Z " fill="#4A7CF6" transform="translate(186,36)"/>
<path d="M0 0 C2.79872437 2.52788007 4.45773019 4.20411134 5 8 C3.35 7.67 1.7 7.34 0 7 C0 4.69 0 2.38 0 0 Z " fill="#8196F3" transform="translate(276,323)"/>
<path d="M0 0 C1.37562854 1.28965176 2.70766393 2.62689293 4 4 C4 4.66 4 5.32 4 6 C2.35 6.33 0.7 6.66 -1 7 C-0.67 4.69 -0.34 2.38 0 0 Z " fill="#7D90F1" transform="translate(269,312)"/>
<path d="M0 0 C2.72426311 2.35277269 3.8141763 4.62496331 5 8 C4.01 7.67 3.02 7.34 2 7 C1.01 7 0.02 7 -1 7 C-0.67 6.01 -0.34 5.02 0 4 C0 2.68 0 1.36 0 0 Z " fill="#7E94EE" transform="translate(239,265)"/>
<path d="M0 0 C3.45925163 1.2491742 6.14693203 2.67527795 9 5 C5.625 4.75 5.625 4.75 2 4 C0.5625 1.9375 0.5625 1.9375 0 0 Z " fill="#8699EF" transform="translate(182,17)"/>
<path d="M0 0 C0.99 0.33 1.98 0.66 3 1 C4.6875 4.5625 4.6875 4.5625 6 8 C5.34 8.66 4.68 9.32 4 10 C3.32845067 8.71086513 2.66291141 7.41859796 2 6.125 C1.62875 5.40570313 1.2575 4.68640625 0.875 3.9453125 C0 2 0 2 0 0 Z " fill="#94A5F1" transform="translate(209,313)"/>
<path d="M0 0 C0 0.99 0 1.98 0 3 C-2.70879335 4.35439668 -5.00933268 4.06501451 -8 4 C-7.01 3.67 -6.02 3.34 -5 3 C-5 2.34 -5 1.68 -5 1 C-3 0 -3 0 0 0 Z " fill="#91AAF1" transform="translate(173,181)"/>
<path d="M0 0 C0.66 1.32 1.32 2.64 2 4 C0.02 6.97 0.02 6.97 -2 10 C-3 8 -3 8 -2.44140625 6.0546875 C-2.15136719 5.33539063 -1.86132812 4.61609375 -1.5625 3.875 C-1.27503906 3.15054688 -0.98757812 2.42609375 -0.69140625 1.6796875 C-0.46324219 1.12539062 -0.23507813 0.57109375 0 0 Z " fill="#4879F0" transform="translate(224,155)"/>
<path d="M0 0 C1.99097846 2.98646769 2.94124926 5.59687262 4 9 C3.34 9 2.68 9 2 9 C1.34 8.34 0.68 7.68 0 7 C-0.66 6.67 -1.32 6.34 -2 6 C-1.34 4.02 -0.68 2.04 0 0 Z " fill="#8494F2" transform="translate(236,72)"/>
<path d="M0 0 C2.475 0.99 2.475 0.99 5 2 C4.67 3.98 4.34 5.96 4 8 C1.84622436 5.37801226 0.59927826 3.35595828 0 0 Z " fill="#8D9FF2" transform="translate(193,282)"/>
<path d="M0 0 C1.32 1.32 2.64 2.64 4 4 C3.34 5.32 2.68 6.64 2 8 C1.34 8 0.68 8 0 8 C0 5.36 0 2.72 0 0 Z " fill="#788EF3" transform="translate(235,259)"/>
<path d="M0 0 C2.25245881 2.68841859 3.88213958 4.64641875 5 8 C3.68 7.67 2.36 7.34 1 7 C1.33 6.01 1.66 5.02 2 4 C1.34 4 0.68 4 0 4 C0 2.68 0 1.36 0 0 Z " fill="#8B9CEF" transform="translate(298,357)"/>
<path d="M0 0 C3.465 1.98 3.465 1.98 7 4 C5.1875 4.625 5.1875 4.625 3 5 C2.01 4.34 1.02 3.68 0 3 C0 2.01 0 1.02 0 0 Z " fill="#4779EF" transform="translate(67,203)"/>
<path d="M0 0 C0.99 0.33 1.98 0.66 3 1 C-0.465 3.97 -0.465 3.97 -4 7 C-2.92598892 4.08482708 -2.22189824 2.22189824 0 0 Z " fill="#4680E8" transform="translate(55,51)"/>
<path d="M0 0 C1.98 1.65 3.96 3.3 6 5 C5.01 5.66 4.02 6.32 3 7 C3 6.34 3 5.68 3 5 C2.01 4.67 1.02 4.34 0 4 C0 2.68 0 1.36 0 0 Z " fill="#718DEE" transform="translate(214,41)"/>
<path d="" fill="#FFFFFF" transform="translate(0,0)"/>
<path d="" fill="#FFFFFF" transform="translate(0,0)"/>
<path d="" fill="#FFFFFF" transform="translate(0,0)"/>
<path d="" fill="#FFFFFF" transform="translate(0,0)"/>
<path d="" fill="#FFFFFF" transform="translate(0,0)"/>
<path d="" fill="#FFFFFF" transform="translate(0,0)"/>
<path d="" fill="#FFFFFF" transform="translate(0,0)"/>
<path d="" fill="#FFFFFF" transform="translate(0,0)"/>
<path d="" fill="#FFFFFF" transform="translate(0,0)"/>
<path d="" fill="#FFFFFF" transform="translate(0,0)"/>
<path d="" fill="#FFFFFF" transform="translate(0,0)"/>
<path d="" fill="#FFFFFF" transform="translate(0,0)"/>
<path d="" fill="#FFFFFF" transform="translate(0,0)"/>
<path d="" fill="#FFFFFF" transform="translate(0,0)"/>
<path d="" fill="#FFFFFF" transform="translate(0,0)"/>
<path d="" fill="#FFFFFF" transform="translate(0,0)"/>
<path d="" fill="#FFFFFF" transform="translate(0,0)"/>
<path d="" fill="#FFFFFF" transform="translate(0,0)"/>
<path d="" fill="#FFFFFF" transform="translate(0,0)"/>
<path d="" fill="#FFFFFF" transform="translate(0,0)"/>
<path d="" fill="#FFFFFF" transform="translate(0,0)"/>
<path d="" fill="#FFFFFF" transform="translate(0,0)"/>
<path d="" fill="#FFFFFF" transform="translate(0,0)"/>
<path d="" fill="#FFFFFF" transform="translate(0,0)"/>
<path d="" fill="#FFFFFF" transform="translate(0,0)"/>
<path d="" fill="#FFFFFF" transform="translate(0,0)"/>
<path d="" fill="#FFFFFF" transform="translate(0,0)"/>
<path d="" fill="#FFFFFF" transform="translate(0,0)"/>
<path d="" fill="#FFFFFF" transform="translate(0,0)"/>
<path d="" fill="#FFFFFF" transform="translate(0,0)"/>
<path d="" fill="#FFFFFF" transform="translate(0,0)"/>
<path d="" fill="#FFFFFF" transform="translate(0,0)"/>
<path d="" fill="#FFFFFF" transform="translate(0,0)"/>
<path d="" fill="#FFFFFF" transform="translate(0,0)"/>
<path d="" fill="#FFFFFF" transform="translate(0,0)"/>
<path d="" fill="#FFFFFF" transform="translate(0,0)"/>
<path d="" fill="#FFFFFF" transform="translate(0,0)"/>
<path d="" fill="#FFFFFF" transform="translate(0,0)"/>
<path d="" fill="#FFFFFF" transform="translate(0,0)"/>
</svg>
